<svg xmlns="http://www.w3.org/2000/svg" xmlns:xlink="http://www.w3.org/1999/xlink" viewBox="0 0 167.26 77.81"><defs><linearGradient id="Nouvelle_nuance_de_dégradé_2" x1="501.95" y1="295.89" x2="556.69" y2="241.16" gradientTransform="translate(-356.21 483.21) rotate(-75.29)" gradientUnits="userSpaceOnUse"><stop offset="0" stop-color="#0c4566"/><stop offset="0.28" stop-color="#0e8096"/><stop offset="0.61" stop-color="#40b4b7"/><stop offset="1" stop-color="#47b8ba"/></linearGradient><linearGradient id="Nouvelle_nuance_de_dégradé_2-2" x1="579.23" y1="262.26" x2="591.8" y2="249.7" gradientTransform="translate(-565.03 247.97) rotate(-42.71)" xlink:href="#Nouvelle_nuance_de_dégradé_2"/></defs><title>Fichier 1</title><g id="Calque_2" data-name="Calque 2"><g id="Calque_1-2" data-name="Calque 1"><path d="M85.17,50.35V49.6h2.26v2.14a3,3,0,0,1-5.33-1.8,2.93,2.93,0,0,1,3-2.9,2.89,2.89,0,0,1,2.2,1l-.6.51a2.14,2.14,0,0,0-1.6-.77A2,2,0,0,0,83,49.94a2,2,0,0,0,2.1,2.13,2.16,2.16,0,0,0,1.47-.57V50.35Z" style="fill:#1d1d1b"/><path d="M89.48,49.32a1.26,1.26,0,0,1,1-.73,1.65,1.65,0,0,1,.46.06l-.16.83a.83.83,0,0,0-.39-.09,1.06,1.06,0,0,0-.92.63v2.71h-.82v-4h.78Z" style="fill:#1d1d1b"/><path d="M95.37,50.71a2.08,2.08,0,1,1-2.08-2.12A2.06,2.06,0,0,1,95.37,50.71Zm-2.08-1.37a1.29,1.29,0,0,0-1.24,1.37,1.25,1.25,0,1,0,2.48,0A1.29,1.29,0,0,0,93.29,49.34Z" style="fill:#1d1d1b"/><path d="M99.12,52.73l0-.63a1.54,1.54,0,0,1-1.31.73,1.34,1.34,0,0,1-1.15-.51,2.58,2.58,0,0,1-.36-1.53v-2.1h.82v2a2.08,2.08,0,0,0,.19,1.05.72.72,0,0,0,.67.32,1.44,1.44,0,0,0,1.13-.72V48.69h.82v4Z" style="fill:#1d1d1b"/><path d="M101.94,48.69l0,.54a1.57,1.57,0,0,1,1.29-.64,2.12,2.12,0,0,1,0,4.24A1.76,1.76,0,0,1,102,52.3v2.43h-.82v-6Zm0,2.81a1.39,1.39,0,0,0,1.12.59,1.3,1.3,0,0,0,1.3-1.39,1.29,1.29,0,0,0-1.28-1.36,1.27,1.27,0,0,0-1.14.72Z" style="fill:#1d1d1b"/><path d="M107.91,52.14a1.24,1.24,0,0,0,1.17-.64l.58.37a1.92,1.92,0,0,1-1.79,1,2,2,0,0,1-2-2.11,2,2,0,0,1,2-2.13,1.83,1.83,0,0,1,1.88,1.88,3,3,0,0,1,0,.45h-3A1.25,1.25,0,0,0,107.91,52.14Zm0-2.86a1.2,1.2,0,0,0-1.15,1h2.16A1,1,0,0,0,107.88,49.28Z" style="fill:#1d1d1b"/><polygon points="82.1 61.17 83.4 61.17 83.4 58.96 85.31 58.96 85.31 57.89 83.4 57.89 83.4 56.64 85.31 56.64 85.31 55.57 82.1 55.57 82.1 61.17" style="fill:#1d1d1b"/><path d="M88.74,59.73a1,1,0,0,1-.8.45.52.52,0,0,1-.51-.3,2.15,2.15,0,0,1-.1-.82V56.88H86V59.1a2.43,2.43,0,0,0,.38,1.59,1.45,1.45,0,0,0,1.1.57,1.63,1.63,0,0,0,1.32-.65l.11.56H90V56.88H88.74Z" style="fill:#1d1d1b"/><path d="M92.72,60.18c-.19,0-.27-.12-.3-.29a2.48,2.48,0,0,1,0-.39V57.94h1V56.88h-1V56H91.21v.92h-.59v1.06h.49V59.6a2.9,2.9,0,0,0,.06.66,1.27,1.27,0,0,0,1.32,1A2.48,2.48,0,0,0,93.59,61l-.41-1A.82.82,0,0,1,92.72,60.18Z" style="fill:#1d1d1b"/><path d="M96.82,59.73a1,1,0,0,1-.8.45.52.52,0,0,1-.51-.3,2.15,2.15,0,0,1-.1-.82V56.88H94.12V59.1a2.43,2.43,0,0,0,.38,1.59,1.45,1.45,0,0,0,1.1.57,1.63,1.63,0,0,0,1.32-.65l.11.56h1.08V56.88H96.82Z" style="fill:#1d1d1b"/><path d="M100.32,57.39l-.12-.51H99.11v4.29h1.29V58.26a.9.9,0,0,1,.73-.39.8.8,0,0,1,.41.1l.32-1.07a1.42,1.42,0,0,0-.58-.12A1.16,1.16,0,0,0,100.32,57.39Z" style="fill:#1d1d1b"/><path d="M105.24,60.14a1.57,1.57,0,0,1-1.59-1.77,1.66,1.66,0,0,1,1.6-1.78,1.87,1.87,0,0,1,1.18.47l.62-1a3.25,3.25,0,0,0-1.81-.59,2.91,2.91,0,0,0-3,2.9,2.8,2.8,0,0,0,2.91,2.89,3.11,3.11,0,0,0,2-.68l-.73-.92A1.75,1.75,0,0,1,105.24,60.14Z" style="fill:#1d1d1b"/><path d="M109.68,56.78A2.24,2.24,0,1,0,112,59,2.19,2.19,0,0,0,109.68,56.78Zm0,3.4c-.57,0-1-.5-1-1.16a1,1,0,1,1,1.9,0C110.63,59.68,110.26,60.18,109.68,60.18Z" style="fill:#1d1d1b"/><path d="M117.67,56.78a1.59,1.59,0,0,0-1.4.7l-.09-.13a1.48,1.48,0,0,0-1.11-.57,1.53,1.53,0,0,0-1.2.58l-.1-.48h-1.09v4.29H114v-3a1,1,0,0,1,.69-.31.52.52,0,0,1,.51.3,2.13,2.13,0,0,1,.1.82v2.18h1.29V58.94c0-.22,0-.44,0-.65a.88.88,0,0,1,.72-.42.5.5,0,0,1,.51.3,2.13,2.13,0,0,1,.1.82v2.18h1.29V58.94a2.44,2.44,0,0,0-.38-1.59A1.48,1.48,0,0,0,117.67,56.78Z" style="fill:#1d1d1b"/><path d="M122.63,56.78a1.58,1.58,0,0,0-1.31.62l-.12-.52h-1.08v6.29h1.29v-2.4a1.59,1.59,0,0,0,1.22.49,2.07,2.07,0,0,0,2-2.22A2.11,2.11,0,0,0,122.63,56.78Zm-.32,3.4a1.1,1.1,0,0,1-.9-.41V58.36a1,1,0,0,1,1.86.65A1.06,1.06,0,0,1,122.31,60.18Z" style="fill:#1d1d1b"/><path d="M127.31,56.78A2.24,2.24,0,1,0,129.57,59,2.19,2.19,0,0,0,127.31,56.78Zm0,3.4c-.58,0-1-.5-1-1.16a1,1,0,1,1,1.9,0C128.26,59.68,127.88,60.18,127.31,60.18Z" style="fill:#1d1d1b"/><path d="M131.88,57.78a1.21,1.21,0,0,1,.83.37l.7-.77a2.15,2.15,0,0,0-1.53-.6,1.42,1.42,0,0,0-1.59,1.33c0,.75.54,1,1,1.27s.8.32.8.6-.29.28-.46.28a1.43,1.43,0,0,1-1-.53l-.7.77a2.58,2.58,0,0,0,1.81.76c.85,0,1.68-.45,1.68-1.39s-.7-1.1-1.25-1.33c-.34-.14-.63-.28-.63-.52S131.72,57.78,131.88,57.78Z" style="fill:#1d1d1b"/><polygon points="137.56 55.1 136.71 54.42 135.61 55.95 136.35 56.51 137.56 55.1" style="fill:#1d1d1b"/><path d="M138.25,58.76a2,2,0,0,0-2.1-2A2.21,2.21,0,0,0,134,59.09a2.08,2.08,0,0,0,2.18,2.17,2.19,2.19,0,0,0,2-1.07l-.83-.57a1.15,1.15,0,0,1-1.06.62,1,1,0,0,1-1-.9h2.92A3,3,0,0,0,138.25,58.76Zm-2.93-.26a.83.83,0,0,1,.87-.72.7.7,0,0,1,.75.72Z" style="fill:#1d1d1b"/><path d="M147.44,59.38v3.2h-1.15V55h4.6v1h-3.45V58.4" style="fill:#47b8ba"/><polygon points="149.54 62.58 150.24 61.2 153.51 55 152.2 55 151.5 56.38 148.23 62.58 149.54 62.58" style="fill:#47b8ba"/><polygon points="150.22 62.58 151.54 62.58 152.24 61.2 155.51 55 154.19 55 153.5 56.38 150.22 62.58" style="fill:#47b8ba"/><path d="M159.6,57.55a3.83,3.83,0,0,0-.75-1.26,3.9,3.9,0,0,0-1.15-.89,3.71,3.71,0,0,0-1.28-.37l-.59,1.12h.35a2.49,2.49,0,0,1,1,.27,2.77,2.77,0,0,1,.81.63,2.7,2.7,0,0,1,.52.88,2.55,2.55,0,0,1,.15,1,2.49,2.49,0,0,1-.27,1,2.94,2.94,0,0,1-.63.81,2.91,2.91,0,0,1-.89.51,2.58,2.58,0,0,1-1,.15,2.52,2.52,0,0,1-1-.28,2.69,2.69,0,0,1-.8-.62,1.84,1.84,0,0,1-.17-.22,1.07,1.07,0,0,1-.13-.21l-.58,1.09v0A4.19,4.19,0,0,0,154,62a3.61,3.61,0,0,0,1.79.6,3.72,3.72,0,0,0,1.49-.21,4.19,4.19,0,0,0,1.26-.74,3.94,3.94,0,0,0,.89-1.16,3.45,3.45,0,0,0,.4-1.44A3.72,3.72,0,0,0,159.6,57.55Z" style="fill:#47b8ba"/><path d="M148.18,58.32a.7.7,0,0,0,0,1,.69.69,0,1,0,0-1Z" style="fill:#47b8ba"/><path d="M163.65,58.83a1.74,1.74,0,0,1-1.31-.46,2.62,2.62,0,0,1-.46-1.94c0-.23,0-.46,0-.65v0c0-2.1-.92-2.34-1.62-2.34v-.8c1.1,0,2.42.54,2.42,3.12a5.74,5.74,0,0,1,0,.72c0,.54,0,1.1.24,1.36a1,1,0,0,0,.73.22Z" style="fill:#1d1d1b"/><path d="M160.25,65v-.81c.7,0,1.62-.24,1.62-2.33v0c0-.19,0-.41,0-.65a2.62,2.62,0,0,1,.46-1.94,1.78,1.78,0,0,1,1.31-.46v.81a1,1,0,0,0-.73.21,2.09,2.09,0,0,0-.24,1.37,5.55,5.55,0,0,1,0,.71C162.67,64.43,161.35,65,160.25,65Z" style="fill:#1d1d1b"/><path d="M141.26,58.83V58a1,1,0,0,0,.73-.22c.26-.26.25-.82.24-1.36a5.74,5.74,0,0,1,0-.72c0-2.58,1.31-3.12,2.41-3.12v.8c-.69,0-1.61.24-1.61,2.34v0a4.6,4.6,0,0,0,0,.65,2.57,2.57,0,0,1-.47,1.94A1.73,1.73,0,0,1,141.26,58.83Z" style="fill:#1d1d1b"/><path d="M144.65,65c-1.1,0-2.41-.55-2.41-3.12a5.74,5.74,0,0,1,0-.72,2.09,2.09,0,0,0-.24-1.37,1,1,0,0,0-.73-.21v-.81a1.77,1.77,0,0,1,1.3.46,2.59,2.59,0,0,1,.47,1.94,4.57,4.57,0,0,0,0,.65v0c0,2.09.92,2.33,1.61,2.33Z" style="fill:#1d1d1b"/><rect x="65.34" y="15.93" width="101.21" height="23.75" transform="translate(-1.66 8.16) rotate(-4)" style="fill:#010101"/><path d="M81.31,26.48a5.29,5.29,0,0,0-3.47-1.12c-2.67.18-4.44,2.6-4.24,5.42s2,5,4.93,4.79a5,5,0,0,0,3.28-1.64l2.3,2.52a9.07,9.07,0,0,1-5.52,2.34,8.07,8.07,0,0,1-9-7.73,8.4,8.4,0,0,1,8-8.92,9.29,9.29,0,0,1,5.31,1.34Z" style="fill:#fff"/><path d="M88.84,26.9A3.34,3.34,0,0,1,91.5,25a4.56,4.56,0,0,1,1.68.2l-.7,3.15a2.52,2.52,0,0,0-1.19-.2,2.57,2.57,0,0,0-2,1.28l.59,8.34L86.13,38l-.86-12.32,3.15-.22Z" style="fill:#fff"/><path d="M100.42,37.27a6,6,0,0,1-6.71-5.81,6.36,6.36,0,0,1,5.84-7.06A5.7,5.7,0,0,1,106,29.65a12.2,12.2,0,0,1,0,1.69l-8.42.59a2.77,2.77,0,0,0,2.94,2.38,3.33,3.33,0,0,0,2.93-2l2.51,1.47A6.34,6.34,0,0,1,100.42,37.27Zm1.75-8.12a2,2,0,0,0-2.31-1.91,2.44,2.44,0,0,0-2.36,2.24Zm-2.1-5.58-2.23-1.46,2.84-4.63,2.6,1.78Z" style="fill:#fff"/><path d="M116.17,35.89l-.41-.94a4.06,4.06,0,0,1-3.16,1.47c-2.3.16-4.56-1.16-4.73-3.67-.21-3,2.55-4.13,5-4.3a9.63,9.63,0,0,1,2.14.1v-.09c-.1-1.42-.71-2.28-2.42-2.16a8.05,8.05,0,0,0-3.58,1.31l-1.14-2.48a12.36,12.36,0,0,1,5.36-1.69c3.38-.24,5.28,1.64,5.51,4.85l.52,7.38Zm-1-5.25a7.62,7.62,0,0,0-1.48-.1c-1.13.08-2.31.65-2.22,2a1.55,1.55,0,0,0,1.78,1.37,2.94,2.94,0,0,0,2.07-1Z" style="fill:#fff"/><path d="M125.38,25.91l.31,4.51a6.48,6.48,0,0,0,.15,1.1c.13.5.38.8.91.77a2.66,2.66,0,0,0,1.31-.44l1.36,2.63a6.9,6.9,0,0,1-3.12,1,3.69,3.69,0,0,1-4-2.61A9,9,0,0,1,122,31l-.33-4.79-1.41.1-.21-3,1.4-.1.51-2.69,3-.21.19,2.64,3-.21.21,3Z" style="fill:#fff"/><path d="M130.14,21.05l-.2-2.94,3.72-.26.21,2.94Zm1,13.79-.86-12.31,3.72-.26.86,12.31Z" style="fill:#fff"/><path d="M148.26,21.27,144,34l-3,.2-5.48-12,4.11-.29,2.69,7h0l1.75-7.32Z" style="fill:#fff"/><path d="M156.08,33.37a6,6,0,0,1-6.71-5.81,6.36,6.36,0,0,1,5.84-7.06c3.47-.24,6.21,2,6.44,5.26a10.88,10.88,0,0,1-.05,1.69l-8.41.59a2.77,2.77,0,0,0,2.94,2.38,3.35,3.35,0,0,0,2.93-2l2.51,1.47A6.31,6.31,0,0,1,156.08,33.37Zm1.75-8.11a2,2,0,0,0-2.31-1.92,2.45,2.45,0,0,0-2.36,2.25Z" style="fill:#fff"/><path d="M46.48.74A37.09,37.09,0,0,0,31.09.88,41,41,0,0,0,17.32,6.72,39.5,39.5,0,0,0,6.67,17.25,37.8,37.8,0,0,0,.88,46.73,39.57,39.57,0,0,0,6.77,60.5,40.88,40.88,0,0,0,17.31,71.11a37,37,0,0,0,14.19,6,36.41,36.41,0,0,0,19.25-1.22A42.54,42.54,0,0,0,67.2,65.38l-8.79-7.74c-.72.72-1.44,1.38-2.17,2a26.14,26.14,0,0,1-2.33,1.74,28.49,28.49,0,0,1-9.45,4.11,25.22,25.22,0,0,1-10.71.1,26.09,26.09,0,0,1-9.92-4.15A28.53,28.53,0,0,1,16.42,54a27.47,27.47,0,0,1-4.13-9.62,26.33,26.33,0,0,1-.09-10.76,25.91,25.91,0,0,1,4.13-9.82A27.91,27.91,0,0,1,33.47,12.31a26.11,26.11,0,0,1,10.75-.1,45,45,0,0,1,5.13,1.55A18.1,18.1,0,0,1,54,16.27l1.79,1.32,8.17-8.28a28.41,28.41,0,0,0-8.1-5.51A41.2,41.2,0,0,0,46.48.74Z" style="fill:url(#Nouvelle_nuance_de_dégradé_2)"/><circle cx="38.83" cy="38.91" r="8.89" transform="translate(-15.57 31) rotate(-36.79)" style="fill:url(#Nouvelle_nuance_de_dégradé_2-2)"/></g></g></svg>